<svg xmlns="http://www.w3.org/2000/svg" viewBox="0 0 800 500">
  <defs>
    <linearGradient id="sky" x1="0" y1="0" x2="0" y2="1">
      <stop offset="0%" stop-color="#87CEEB"/>
      <stop offset="100%" stop-color="#E0F0FF"/>
    </linearGradient>
    <linearGradient id="bodyGrad" x1="0" y1="0" x2="0" y2="1">
      <stop offset="0%" stop-color="#E8102E"/>
      <stop offset="40%" stop-color="#C8102E"/>
      <stop offset="100%" stop-color="#A00D24"/>
    </linearGradient>
    <linearGradient id="cabinGrad" x1="0" y1="0" x2="0" y2="1">
      <stop offset="0%" stop-color="#D40E28"/>
      <stop offset="100%" stop-color="#9B0B22"/>
    </linearGradient>
    <linearGradient id="windshield" x1="0" y1="0" x2="0.3" y2="1">
      <stop offset="0%" stop-color="#B8D8F0"/>
      <stop offset="50%" stop-color="#7CB8DE"/>
      <stop offset="100%" stop-color="#5A9DC5"/>
    </linearGradient>
    <linearGradient id="chrome" x1="0" y1="0" x2="0" y2="1">
      <stop offset="0%" stop-color="#E8E8E8"/>
      <stop offset="50%" stop-color="#C0C0C0"/>
      <stop offset="100%" stop-color="#A0A0A0"/>
    </linearGradient>
    <linearGradient id="ground" x1="0" y1="0" x2="0" y2="1">
      <stop offset="0%" stop-color="#808080"/>
      <stop offset="100%" stop-color="#606060"/>
    </linearGradient>
    <filter id="shadow"><feDropShadow dx="3" dy="5" stdDeviation="4" flood-color="#00000040"/></filter>
  </defs>
  <rect width="800" height="500" fill="url(#sky)"/>
  <rect x="0" y="390" width="800" height="110" fill="url(#ground)"/>
  <rect x="0" y="390" width="800" height="3" fill="#909090"/>
  <g filter="url(#shadow)">
    <rect x="155" y="340" width="440" height="18" rx="3" fill="#3D3D3D"/>
    <rect x="160" y="195" width="290" height="150" rx="4" fill="url(#bodyGrad)"/>
    <path d="M450,195 L450,345 L595,345 L595,235 Q595,215 580,205 L510,195 Z" fill="url(#cabinGrad)"/>
    <path d="M450,195 L510,185 Q550,180 580,190 L595,205 Q595,195 585,195 L460,195 Z" fill="#B80D23"/>
    <path d="M508,200 L560,200 Q580,200 585,218 L588,240 L500,240 L500,210 Q500,200 508,200 Z" fill="url(#windshield)" stroke="#555" stroke-width="1.5"/>
    <line x1="545" y1="200" x2="545" y2="240" stroke="#666" stroke-width="1.5"/>
    <rect x="460" y="210" width="35" height="30" rx="3" fill="url(#windshield)" stroke="#555" stroke-width="1"/>
    <rect x="345" y="210" width="45" height="35" rx="3" fill="url(#windshield)" stroke="#555" stroke-width="1"/>
    <rect x="280" y="210" width="45" height="35" rx="3" fill="url(#windshield)" stroke="#555" stroke-width="1"/>
    <rect x="160" y="310" width="435" height="10" fill="#FFD700" opacity="0.9"/>
    <rect x="160" y="322" width="435" height="5" fill="white" opacity="0.6"/>
    <rect x="160" y="329" width="435" height="3" fill="#FFD700" opacity="0.7"/>
    <rect x="170" y="255" width="65" height="52" rx="2" fill="#A50D20" stroke="#8B0A1A" stroke-width="1"/>
    <rect x="245" y="255" width="65" height="52" rx="2" fill="#A50D20" stroke="#8B0A1A" stroke-width="1"/>
    <rect x="320" y="255" width="55" height="52" rx="2" fill="#A50D20" stroke="#8B0A1A" stroke-width="1"/>
    <rect x="198" y="278" width="12" height="4" rx="2" fill="url(#chrome)"/>
    <rect x="273" y="278" width="12" height="4" rx="2" fill="url(#chrome)"/>
    <rect x="343" y="278" width="12" height="4" rx="2" fill="url(#chrome)"/>
    <text x="300" y="208" font-family="Arial Black, sans-serif" font-weight="900" font-size="14" fill="white" text-anchor="middle" letter-spacing="3">FEUERWEHR</text>
    <text x="230" y="250" font-family="Arial, sans-serif" font-weight="bold" font-size="18" fill="white">ELW 1</text>
    <rect x="430" y="178" width="110" height="18" rx="9" fill="#2255AA" stroke="#1A4488" stroke-width="1"/>
    <circle cx="455" cy="187" r="6" fill="#4488EE"/><circle cx="475" cy="187" r="6" fill="#3377DD"/>
    <circle cx="495" cy="187" r="6" fill="#4488EE"/><circle cx="515" cy="187" r="6" fill="#3377DD"/>
    <circle cx="455" cy="187" r="3" fill="#88BBFF" opacity="0.8"/>
    <circle cx="495" cy="187" r="3" fill="#88BBFF" opacity="0.8"/>
    <line x1="250" y1="195" x2="250" y2="155" stroke="#555" stroke-width="2"/>
    <circle cx="250" cy="153" r="3" fill="#333"/>
    <line x1="370" y1="195" x2="370" y2="160" stroke="#555" stroke-width="2"/>
    <circle cx="370" cy="158" r="3" fill="#333"/>
    <line x1="200" y1="195" x2="196" y2="165" stroke="#555" stroke-width="1.5"/>
    <ellipse cx="590" cy="265" rx="12" ry="10" fill="#FFFFDD" stroke="#888" stroke-width="1"/>
    <ellipse cx="590" cy="265" rx="7" ry="6" fill="#FFFFF0"/>
    <rect x="585" y="280" width="10" height="6" rx="2" fill="#FFB800"/>
    <rect x="597" y="215" width="18" height="28" rx="3" fill="#333" stroke="#555" stroke-width="1"/>
    <rect x="600" y="218" width="12" height="22" rx="2" fill="#7CB8DE" opacity="0.6"/>
    <rect x="155" y="345" width="445" height="12" rx="3" fill="#444"/>
    <rect x="555" y="340" width="50" height="18" rx="3" fill="#555"/>
    <rect x="540" y="348" width="52" height="12" rx="1" fill="white" stroke="#333" stroke-width="0.5"/>
    <rect x="540" y="348" width="8" height="12" fill="#003399"/>
    <text x="566" y="358" font-family="Arial, sans-serif" font-weight="bold" font-size="7" fill="#1a1a1a" text-anchor="middle">RT-WH 1112</text>
  </g>
  <circle cx="240" cy="370" r="38" fill="#1A1A1A"/><circle cx="240" cy="370" r="32" fill="#222" stroke="#2D2D2D" stroke-width="3"/>
  <circle cx="240" cy="370" r="16" fill="#888"/><circle cx="240" cy="370" r="12" fill="#999"/><circle cx="240" cy="370" r="4" fill="#777"/>
  <circle cx="240" cy="360" r="2" fill="#666"/><circle cx="250" cy="367" r="2" fill="#666"/>
  <circle cx="248" cy="378" r="2" fill="#666"/><circle cx="232" cy="378" r="2" fill="#666"/><circle cx="230" cy="367" r="2" fill="#666"/>
  <circle cx="530" cy="370" r="38" fill="#1A1A1A"/><circle cx="530" cy="370" r="32" fill="#222" stroke="#2D2D2D" stroke-width="3"/>
  <circle cx="530" cy="370" r="16" fill="#888"/><circle cx="530" cy="370" r="12" fill="#999"/><circle cx="530" cy="370" r="4" fill="#777"/>
  <circle cx="530" cy="360" r="2" fill="#666"/><circle cx="540" cy="367" r="2" fill="#666"/>
  <circle cx="538" cy="378" r="2" fill="#666"/><circle cx="522" cy="378" r="2" fill="#666"/><circle cx="520" cy="367" r="2" fill="#666"/>
  <ellipse cx="400" cy="408" rx="250" ry="12" fill="#00000025"/>
  <text x="400" y="465" font-family="Inter, Arial, sans-serif" font-weight="700" font-size="16" fill="#444" text-anchor="middle">ELW 1 (1/11) - Mercedes Benz Sprinter - RT-WH 1112</text>
  <text x="400" y="485" font-family="Inter, Arial, sans-serif" font-weight="400" font-size="13" fill="#777" text-anchor="middle">Einsatzleitwagen - Baujahr 2014 - Florian Walddorfhaeslach 1/11</text>
</svg>
