<svg xmlns="http://www.w3.org/2000/svg" viewBox="0 0 800 400">
  <defs>
    <linearGradient id="bg" x1="0" y1="0" x2="1" y2="1">
      <stop offset="0%" stop-color="#1a202c"/>
      <stop offset="100%" stop-color="#2d3748"/>
    </linearGradient>
  </defs>
  <rect width="800" height="400" fill="url(#bg)"/>
  <rect x="0" y="310" width="800" height="90" fill="#2d3748"/>
  <rect x="0" y="350" width="800" height="3" fill="#718096" opacity="0.4"/>
  <!-- Fahrzeug-Körper (groß, kastenförmig) -->
  <rect x="140" y="160" width="420" height="150" rx="6" fill="#C8102E"/>
  <!-- Kofferaufbau -->
  <rect x="140" y="165" width="300" height="140" rx="4" fill="#B91C1C"/>
  <rect x="160" y="175" width="120" height="100" rx="2" fill="#991B1B" opacity="0.5"/>
  <rect x="300" y="175" width="120" height="100" rx="2" fill="#991B1B" opacity="0.5"/>
  <!-- Fahrerkabine -->
  <rect x="500" y="195" width="110" height="115" rx="6" fill="#9B0B22"/>
  <rect x="518" y="205" width="75" height="50" rx="4" fill="#63B3ED" opacity="0.7"/>
  <!-- Blaulicht -->
  <rect x="490" y="148" width="80" height="16" rx="8" fill="#3182CE"/>
  <circle cx="510" cy="156" r="5" fill="#63B3ED"/>
  <circle cx="550" cy="156" r="5" fill="#63B3ED"/>
  <!-- GW-T Beschriftung -->
  <text x="300" y="260" font-family="Arial, sans-serif" font-weight="bold" font-size="28" fill="white" text-anchor="middle">GW-T 2</text>
  <!-- Feuerwehr-Streifen -->
  <rect x="140" y="290" width="470" height="8" fill="#E53E3E"/>
  <rect x="140" y="302" width="470" height="3" fill="white" opacity="0.3"/>
  <!-- Räder -->
  <circle cx="230" cy="315" r="32" fill="#1a202c"/>
  <circle cx="230" cy="315" r="20" fill="#2d3748"/>
  <circle cx="230" cy="315" r="7" fill="#718096"/>
  <circle cx="520" cy="315" r="32" fill="#1a202c"/>
  <circle cx="520" cy="315" r="20" fill="#2d3748"/>
  <circle cx="520" cy="315" r="7" fill="#718096"/>
  <!-- Kennzeichen -->
  <rect x="530" y="278" width="80" height="20" rx="2" fill="white"/>
  <text x="570" y="293" font-family="Arial, sans-serif" font-weight="bold" font-size="10" fill="#1a202c" text-anchor="middle">RT-WH 7410</text>
  <!-- Geräteladebordwand angedeutet -->
  <rect x="140" y="300" width="8" height="15" fill="#991B1B"/>
  <!-- Label -->
  <text x="400" y="380" font-family="Arial, sans-serif" font-weight="bold" font-size="14" fill="white" opacity="0.6" text-anchor="middle">Gerätewagen Transport | Im Dienst seit 2021</text>
</svg>
