<svg xmlns="http://www.w3.org/2000/svg" viewBox="0 0 800 500">
  <defs>
    <linearGradient id="sky" x1="0" y1="0" x2="0" y2="1"><stop offset="0%" stop-color="#87CEEB"/><stop offset="100%" stop-color="#E0F0FF"/></linearGradient>
    <linearGradient id="body" x1="0" y1="0" x2="0" y2="1"><stop offset="0%" stop-color="#E8102E"/><stop offset="40%" stop-color="#C8102E"/><stop offset="100%" stop-color="#A00D24"/></linearGradient>
    <linearGradient id="box" x1="0" y1="0" x2="0" y2="1"><stop offset="0%" stop-color="#D00E25"/><stop offset="100%" stop-color="#950A1E"/></linearGradient>
    <linearGradient id="glass" x1="0" y1="0" x2="0.3" y2="1"><stop offset="0%" stop-color="#B8D8F0"/><stop offset="50%" stop-color="#7CB8DE"/><stop offset="100%" stop-color="#5A9DC5"/></linearGradient>
    <linearGradient id="chr" x1="0" y1="0" x2="0" y2="1"><stop offset="0%" stop-color="#E8E8E8"/><stop offset="50%" stop-color="#C0C0C0"/><stop offset="100%" stop-color="#A0A0A0"/></linearGradient>
    <linearGradient id="gnd" x1="0" y1="0" x2="0" y2="1"><stop offset="0%" stop-color="#808080"/><stop offset="100%" stop-color="#606060"/></linearGradient>
    <filter id="sh"><feDropShadow dx="3" dy="5" stdDeviation="4" flood-color="#00000040"/></filter>
  </defs>
  <rect width="800" height="500" fill="url(#sky)"/>
  <rect x="0" y="395" width="800" height="105" fill="url(#gnd)"/>
  <rect x="0" y="395" width="800" height="3" fill="#909090"/>
  <g filter="url(#sh)">
    <rect x="120" y="348" width="500" height="16" rx="3" fill="#3D3D3D"/>
    <rect x="125" y="170" width="340" height="182" rx="3" fill="url(#box)"/>
    <rect x="135" y="195" width="100" height="125" rx="2" fill="#A50D20" stroke="#8B0A1A" stroke-width="1"/>
    <rect x="245" y="195" width="100" height="125" rx="2" fill="#A50D20" stroke="#8B0A1A" stroke-width="1"/>
    <rect x="355" y="195" width="100" height="125" rx="2" fill="#A50D20" stroke="#8B0A1A" stroke-width="1"/>
    <line x1="138" y1="215" x2="232" y2="215" stroke="#900D1C" stroke-width="0.5"/>
    <line x1="138" y1="235" x2="232" y2="235" stroke="#900D1C" stroke-width="0.5"/>
    <line x1="138" y1="255" x2="232" y2="255" stroke="#900D1C" stroke-width="0.5"/>
    <line x1="248" y1="215" x2="342" y2="215" stroke="#900D1C" stroke-width="0.5"/>
    <line x1="248" y1="235" x2="342" y2="235" stroke="#900D1C" stroke-width="0.5"/>
    <line x1="248" y1="255" x2="342" y2="255" stroke="#900D1C" stroke-width="0.5"/>
    <line x1="358" y1="215" x2="452" y2="215" stroke="#900D1C" stroke-width="0.5"/>
    <line x1="358" y1="235" x2="452" y2="235" stroke="#900D1C" stroke-width="0.5"/>
    <line x1="358" y1="255" x2="452" y2="255" stroke="#900D1C" stroke-width="0.5"/>
    <rect x="180" y="254" width="14" height="5" rx="2" fill="url(#chr)"/>
    <rect x="290" y="254" width="14" height="5" rx="2" fill="url(#chr)"/>
    <rect x="400" y="254" width="14" height="5" rx="2" fill="url(#chr)"/>
    <path d="M465,195 L465,360 L610,360 L610,248 Q610,225 595,215 L520,195 Z" fill="url(#body)"/>
    <path d="M465,195 L520,183 Q555,178 590,193 L610,215 Q610,200 598,195 L470,195 Z" fill="#B80D23"/>
    <path d="M525,198 L578,198 Q598,200 604,222 L607,250 L518,250 L518,210 Q518,198 525,198 Z" fill="url(#glass)" stroke="#555" stroke-width="1.5"/>
    <line x1="563" y1="198" x2="563" y2="250" stroke="#666" stroke-width="1.5"/>
    <rect x="475" y="215" width="38" height="35" rx="3" fill="url(#glass)" stroke="#555" stroke-width="1"/>
    <rect x="125" y="330" width="490" height="10" fill="#FFD700" opacity="0.9"/>
    <rect x="125" y="342" width="490" height="5" fill="white" opacity="0.6"/>
    <text x="295" y="185" font-family="Arial Black, sans-serif" font-weight="900" font-size="14" fill="white" text-anchor="middle" letter-spacing="3">FEUERWEHR</text>
    <text x="295" y="340" font-family="Arial, sans-serif" font-weight="bold" font-size="20" fill="white" text-anchor="middle">GW-T 2</text>
    <rect x="450" y="175" width="105" height="18" rx="9" fill="#2255AA" stroke="#1A4488" stroke-width="1"/>
    <circle cx="473" cy="184" r="6" fill="#4488EE"/><circle cx="493" cy="184" r="6" fill="#3377DD"/>
    <circle cx="513" cy="184" r="6" fill="#4488EE"/><circle cx="533" cy="184" r="6" fill="#3377DD"/>
    <ellipse cx="607" cy="275" rx="12" ry="10" fill="#FFFFDD" stroke="#888" stroke-width="1"/>
    <rect x="602" y="290" width="10" height="6" rx="2" fill="#FFB800"/>
    <rect x="614" y="222" width="18" height="28" rx="3" fill="#333"/>
    <rect x="617" y="225" width="12" height="22" rx="2" fill="#7CB8DE" opacity="0.5"/>
    <rect x="120" y="358" width="500" height="12" rx="3" fill="#444"/>
    <rect x="555" y="360" width="52" height="12" rx="1" fill="white" stroke="#333" stroke-width="0.5"/>
    <rect x="555" y="360" width="8" height="12" fill="#003399"/>
    <text x="581" y="370" font-family="Arial, sans-serif" font-weight="bold" font-size="7" fill="#1a1a1a" text-anchor="middle">RT-WH 7410</text>
    <rect x="120" y="350" width="8" height="20" rx="1" fill="#8B0A1A"/>
  </g>
  <circle cx="210" cy="380" r="40" fill="#1A1A1A"/><circle cx="210" cy="380" r="34" fill="#222" stroke="#2D2D2D" stroke-width="3"/>
  <circle cx="210" cy="380" r="17" fill="#888"/><circle cx="210" cy="380" r="13" fill="#999"/><circle cx="210" cy="380" r="4" fill="#777"/>
  <circle cx="545" cy="380" r="40" fill="#1A1A1A"/><circle cx="545" cy="380" r="34" fill="#222" stroke="#2D2D2D" stroke-width="3"/>
  <circle cx="545" cy="380" r="17" fill="#888"/><circle cx="545" cy="380" r="13" fill="#999"/><circle cx="545" cy="380" r="4" fill="#777"/>
  <ellipse cx="390" cy="416" rx="260" ry="12" fill="#00000025"/>
  <text x="400" y="460" font-family="Inter, Arial, sans-serif" font-weight="700" font-size="16" fill="#444" text-anchor="middle">GW-T 2 (1/74) - RT-WH 7410</text>
  <text x="400" y="480" font-family="Inter, Arial, sans-serif" font-weight="400" font-size="13" fill="#777" text-anchor="middle">Geraetewagen Transport - Im Dienst seit 2021 - Florian Walddorfhaeslach 1/74</text>
</svg>
