<svg xmlns="http://www.w3.org/2000/svg" viewBox="0 0 800 500">
  <defs>
    <linearGradient id="sky" x1="0" y1="0" x2="0" y2="1"><stop offset="0%" stop-color="#87CEEB"/><stop offset="100%" stop-color="#E0F0FF"/></linearGradient>
    <linearGradient id="body" x1="0" y1="0" x2="0" y2="1"><stop offset="0%" stop-color="#E8102E"/><stop offset="40%" stop-color="#C8102E"/><stop offset="100%" stop-color="#A00D24"/></linearGradient>
    <linearGradient id="glass" x1="0" y1="0" x2="0.3" y2="1"><stop offset="0%" stop-color="#B8D8F0"/><stop offset="50%" stop-color="#7CB8DE"/><stop offset="100%" stop-color="#5A9DC5"/></linearGradient>
    <linearGradient id="chr" x1="0" y1="0" x2="0" y2="1"><stop offset="0%" stop-color="#E8E8E8"/><stop offset="50%" stop-color="#C0C0C0"/><stop offset="100%" stop-color="#A0A0A0"/></linearGradient>
    <linearGradient id="gnd" x1="0" y1="0" x2="0" y2="1"><stop offset="0%" stop-color="#808080"/><stop offset="100%" stop-color="#606060"/></linearGradient>
    <filter id="sh"><feDropShadow dx="3" dy="5" stdDeviation="4" flood-color="#00000040"/></filter>
  </defs>
  <rect width="800" height="500" fill="url(#sky)"/>
  <rect x="0" y="395" width="800" height="105" fill="url(#gnd)"/>
  <rect x="0" y="395" width="800" height="3" fill="#909090"/>
  <g filter="url(#sh)">
    <rect x="95" y="348" width="530" height="18" rx="3" fill="#3D3D3D"/>
    <rect x="100" y="145" width="380" height="208" rx="4" fill="url(#body)"/>
    <rect x="105" y="145" width="370" height="30" rx="3" fill="#B80D23"/>
    <rect x="115" y="148" width="80" height="24" rx="2" fill="#A00D20" stroke="#8B0A1A" stroke-width="0.5"/>
    <rect x="205" y="148" width="80" height="24" rx="2" fill="#A00D20" stroke="#8B0A1A" stroke-width="0.5"/>
    <rect x="295" y="148" width="80" height="24" rx="2" fill="#A00D20" stroke="#8B0A1A" stroke-width="0.5"/>
    <rect x="390" y="148" width="75" height="22" rx="3" fill="#AAA" opacity="0.6"/>
    <rect x="110" y="200" width="85" height="110" rx="2" fill="#A50D20" stroke="#8B0A1A" stroke-width="1"/>
    <rect x="205" y="200" width="85" height="110" rx="2" fill="#A50D20" stroke="#8B0A1A" stroke-width="1"/>
    <rect x="300" y="200" width="85" height="110" rx="2" fill="#A50D20" stroke="#8B0A1A" stroke-width="1"/>
    <rect x="395" y="200" width="80" height="110" rx="2" fill="#A50D20" stroke="#8B0A1A" stroke-width="1"/>
    <line x1="113" y1="225" x2="192" y2="225" stroke="#900D1C" stroke-width="0.5"/>
    <line x1="113" y1="250" x2="192" y2="250" stroke="#900D1C" stroke-width="0.5"/>
    <line x1="113" y1="275" x2="192" y2="275" stroke="#900D1C" stroke-width="0.5"/>
    <line x1="208" y1="225" x2="287" y2="225" stroke="#900D1C" stroke-width="0.5"/>
    <line x1="208" y1="250" x2="287" y2="250" stroke="#900D1C" stroke-width="0.5"/>
    <line x1="308" y1="225" x2="382" y2="225" stroke="#900D1C" stroke-width="0.5"/>
    <line x1="308" y1="250" x2="382" y2="250" stroke="#900D1C" stroke-width="0.5"/>
    <rect x="147" y="260" width="14" height="5" rx="2" fill="url(#chr)"/>
    <rect x="242" y="260" width="14" height="5" rx="2" fill="url(#chr)"/>
    <rect x="337" y="260" width="14" height="5" rx="2" fill="url(#chr)"/>
    <rect x="430" y="260" width="14" height="5" rx="2" fill="url(#chr)"/>
    <path d="M480,175 L480,360 L625,360 L625,230 Q625,210 608,200 L530,180 L480,175 Z" fill="url(#body)"/>
    <path d="M480,175 L530,163 Q565,158 600,175 L625,200 Q620,180 610,175 L485,175 Z" fill="#B80D23"/>
    <path d="M535,180 L590,180 Q610,182 618,205 L622,238 L528,238 L528,195 Q528,180 535,180 Z" fill="url(#glass)" stroke="#555" stroke-width="1.5"/>
    <line x1="576" y1="180" x2="576" y2="238" stroke="#666" stroke-width="1.5"/>
    <rect x="488" y="200" width="38" height="38" rx="3" fill="url(#glass)" stroke="#555" stroke-width="1"/>
    <rect x="395" y="185" width="35" height="12" rx="2" fill="url(#glass)" stroke="#555" stroke-width="0.5" opacity="0.7"/>
    <rect x="100" y="320" width="525" height="12" fill="#FFD700" opacity="0.9"/>
    <rect x="100" y="334" width="525" height="5" fill="white" opacity="0.6"/>
    <rect x="100" y="341" width="525" height="3" fill="#FFD700" opacity="0.7"/>
    <text x="290" y="192" font-family="Arial Black, sans-serif" font-weight="900" font-size="14" fill="white" text-anchor="middle" letter-spacing="3">FEUERWEHR</text>
    <text x="250" y="340" font-family="Arial, sans-serif" font-weight="bold" font-size="18" fill="white">HLF 16/12</text>
    <rect x="470" y="157" width="110" height="18" rx="9" fill="#2255AA" stroke="#1A4488" stroke-width="1"/>
    <circle cx="493" cy="166" r="6" fill="#4488EE"/><circle cx="513" cy="166" r="6" fill="#3377DD"/>
    <circle cx="533" cy="166" r="6" fill="#4488EE"/><circle cx="553" cy="166" r="6" fill="#3377DD"/>
    <circle cx="108" cy="330" r="8" fill="#888" stroke="#666" stroke-width="1"/>
    <circle cx="108" cy="330" r="4" fill="#AAA"/>
    <ellipse cx="622" cy="265" rx="12" ry="10" fill="#FFFFDD" stroke="#888" stroke-width="1"/>
    <rect x="618" y="280" width="10" height="6" rx="2" fill="#FFB800"/>
    <rect x="629" y="205" width="20" height="30" rx="3" fill="#333"/>
    <rect x="632" y="208" width="14" height="24" rx="2" fill="#7CB8DE" opacity="0.5"/>
    <rect x="95" y="358" width="540" height="14" rx="3" fill="#444"/>
    <rect x="565" y="360" width="52" height="12" rx="1" fill="white" stroke="#333" stroke-width="0.5"/>
    <rect x="565" y="360" width="8" height="12" fill="#003399"/>
    <text x="591" y="370" font-family="Arial, sans-serif" font-weight="bold" font-size="7" fill="#1a1a1a" text-anchor="middle">RT-WH 112</text>
  </g>
  <circle cx="190" cy="382" r="42" fill="#1A1A1A"/><circle cx="190" cy="382" r="36" fill="#222" stroke="#2D2D2D" stroke-width="3"/>
  <circle cx="190" cy="382" r="18" fill="#888"/><circle cx="190" cy="382" r="14" fill="#999"/><circle cx="190" cy="382" r="4" fill="#777"/>
  <circle cx="290" cy="382" r="36" fill="#1A1A1A"/><circle cx="290" cy="382" r="30" fill="#222" stroke="#2D2D2D" stroke-width="3"/>
  <circle cx="290" cy="382" r="15" fill="#888"/><circle cx="290" cy="382" r="11" fill="#999"/><circle cx="290" cy="382" r="4" fill="#777"/>
  <circle cx="560" cy="382" r="42" fill="#1A1A1A"/><circle cx="560" cy="382" r="36" fill="#222" stroke="#2D2D2D" stroke-width="3"/>
  <circle cx="560" cy="382" r="18" fill="#888"/><circle cx="560" cy="382" r="14" fill="#999"/><circle cx="560" cy="382" r="4" fill="#777"/>
  <ellipse cx="380" cy="418" rx="280" ry="12" fill="#00000025"/>
  <text x="400" y="460" font-family="Inter, Arial, sans-serif" font-weight="700" font-size="16" fill="#444" text-anchor="middle">HLF 16/12 (1/46) - RT-WH 112</text>
  <text x="400" y="480" font-family="Inter, Arial, sans-serif" font-weight="400" font-size="13" fill="#777" text-anchor="middle">Hilfeleistungsloeschgruppenfahrzeug - 1.600l Wasser - Florian Walddorfhaeslach 1/46</text>
</svg>
