<svg xmlns="http://www.w3.org/2000/svg" viewBox="0 0 800 400">
  <defs>
    <linearGradient id="bg" x1="0" y1="0" x2="1" y2="1">
      <stop offset="0%" stop-color="#374151"/>
      <stop offset="100%" stop-color="#6b7280"/>
    </linearGradient>
  </defs>
  <rect width="800" height="400" fill="url(#bg)"/>
  <rect x="0" y="310" width="800" height="90" fill="#2d3748"/>
  <rect x="0" y="350" width="800" height="3" fill="#718096" opacity="0.4"/>
  <!-- Fahrzeug-Körper (ausgeblichenes Rot) -->
  <rect x="150" y="160" width="430" height="150" rx="6" fill="#9CA3AF"/>
  <!-- Geräteraum -->
  <rect x="165" y="195" width="80" height="85" rx="2" fill="#6B7280"/>
  <rect x="255" y="195" width="80" height="85" rx="2" fill="#6B7280"/>
  <rect x="345" y="195" width="70" height="85" rx="2" fill="#6B7280"/>
  <!-- Fahrerkabine -->
  <rect x="490" y="190" width="110" height="120" rx="6" fill="#6B7280"/>
  <rect x="505" y="200" width="75" height="50" rx="4" fill="#9CA3AF" opacity="0.5"/>
  <!-- LF 16-TS Beschriftung -->
  <text x="290" y="180" font-family="Arial, sans-serif" font-weight="bold" font-size="22" fill="white" opacity="0.7">LF 16-TS</text>
  <!-- Streifen (verblasst) -->
  <rect x="150" y="295" width="430" height="6" fill="#9CA3AF"/>
  <!-- Räder -->
  <circle cx="230" cy="315" r="30" fill="#1a202c"/>
  <circle cx="230" cy="315" r="18" fill="#2d3748"/>
  <circle cx="230" cy="315" r="6" fill="#718096"/>
  <circle cx="530" cy="315" r="30" fill="#1a202c"/>
  <circle cx="530" cy="315" r="18" fill="#2d3748"/>
  <circle cx="530" cy="315" r="6" fill="#718096"/>
  <!-- Außer Dienst Banner -->
  <rect x="250" y="240" width="200" height="40" rx="6" fill="rgba(0,0,0,0.6)"/>
  <text x="350" y="266" font-family="Arial, sans-serif" font-weight="bold" font-size="18" fill="white" text-anchor="middle">Außer Dienst</text>
  <!-- Label -->
  <text x="400" y="380" font-family="Arial, sans-serif" font-weight="bold" font-size="14" fill="white" opacity="0.5" text-anchor="middle">Ersetzt durch GW-T 2 seit 2021</text>
</svg>
