<svg xmlns="http://www.w3.org/2000/svg" viewBox="0 0 800 500">
  <defs>
    <linearGradient id="sky" x1="0" y1="0" x2="0" y2="1"><stop offset="0%" stop-color="#D0D0D0"/><stop offset="100%" stop-color="#E8E8E8"/></linearGradient>
    <linearGradient id="body" x1="0" y1="0" x2="0" y2="1"><stop offset="0%" stop-color="#B8B8B8"/><stop offset="40%" stop-color="#A0A0A0"/><stop offset="100%" stop-color="#888"/></linearGradient>
    <linearGradient id="glass" x1="0" y1="0" x2="0.3" y2="1"><stop offset="0%" stop-color="#C0C8D0"/><stop offset="100%" stop-color="#98A8B8"/></linearGradient>
    <linearGradient id="gnd" x1="0" y1="0" x2="0" y2="1"><stop offset="0%" stop-color="#808080"/><stop offset="100%" stop-color="#606060"/></linearGradient>
    <filter id="sh"><feDropShadow dx="3" dy="5" stdDeviation="4" flood-color="#00000030"/></filter>
  </defs>
  <rect width="800" height="500" fill="url(#sky)"/>
  <rect x="0" y="395" width="800" height="105" fill="url(#gnd)"/>
  <rect x="0" y="395" width="800" height="3" fill="#909090"/>
  <g filter="url(#sh)" opacity="0.75">
    <rect x="120" y="348" width="490" height="16" rx="3" fill="#3D3D3D"/>
    <rect x="125" y="165" width="370" height="188" rx="3" fill="url(#body)"/>
    <rect x="135" y="200" width="85" height="100" rx="2" fill="#909090" stroke="#7A7A7A" stroke-width="1"/>
    <rect x="230" y="200" width="85" height="100" rx="2" fill="#909090" stroke="#7A7A7A" stroke-width="1"/>
    <rect x="325" y="200" width="80" height="100" rx="2" fill="#909090" stroke="#7A7A7A" stroke-width="1"/>
    <rect x="172" y="248" width="12" height="4" rx="2" fill="#AAA"/>
    <rect x="267" y="248" width="12" height="4" rx="2" fill="#AAA"/>
    <rect x="360" y="248" width="12" height="4" rx="2" fill="#AAA"/>
    <rect x="495" y="190" width="115" height="163" rx="4" fill="url(#body)"/>
    <rect x="510" y="200" width="80" height="55" rx="3" fill="url(#glass)" stroke="#888" stroke-width="1.5"/>
    <line x1="550" y1="200" x2="550" y2="255" stroke="#999" stroke-width="1"/>
    <rect x="415" y="175" width="35" height="28" rx="2" fill="url(#glass)" stroke="#888" stroke-width="1"/>
    <rect x="125" y="320" width="485" height="8" fill="#CCC" opacity="0.6"/>
    <rect x="125" y="330" width="485" height="4" fill="#DDD" opacity="0.4"/>
    <text x="290" y="185" font-family="Arial, sans-serif" font-weight="bold" font-size="13" fill="#666" text-anchor="middle" letter-spacing="2">FEUERWEHR</text>
    <text x="270" y="330" font-family="Arial, sans-serif" font-weight="bold" font-size="16" fill="#666">LF 16-TS</text>
    <rect x="120" y="358" width="495" height="12" rx="3" fill="#555"/>
    <circle cx="607" cy="270" r="12" fill="#E0E0D0" stroke="#888" stroke-width="1"/>
    <circle cx="607" cy="270" r="7" fill="#EEEED8"/>
  </g>
  <g opacity="0.75">
    <circle cx="210" cy="382" r="40" fill="#1A1A1A"/><circle cx="210" cy="382" r="34" fill="#222" stroke="#2D2D2D" stroke-width="3"/>
    <circle cx="210" cy="382" r="17" fill="#888"/><circle cx="210" cy="382" r="13" fill="#999"/><circle cx="210" cy="382" r="4" fill="#777"/>
    <circle cx="540" cy="382" r="40" fill="#1A1A1A"/><circle cx="540" cy="382" r="34" fill="#222" stroke="#2D2D2D" stroke-width="3"/>
    <circle cx="540" cy="382" r="17" fill="#888"/><circle cx="540" cy="382" r="13" fill="#999"/><circle cx="540" cy="382" r="4" fill="#777"/>
  </g>
  <rect x="270" y="260" width="220" height="50" rx="8" fill="rgba(0,0,0,0.7)"/>
  <text x="380" y="282" font-family="Inter, Arial, sans-serif" font-weight="800" font-size="16" fill="white" text-anchor="middle" letter-spacing="2">AUSSER DIENST</text>
  <text x="380" y="300" font-family="Inter, Arial, sans-serif" font-weight="400" font-size="11" fill="#CCC" text-anchor="middle">Ersetzt durch GW-T 2 seit 2021</text>
  <ellipse cx="380" cy="418" rx="250" ry="12" fill="#00000020"/>
  <text x="400" y="460" font-family="Inter, Arial, sans-serif" font-weight="700" font-size="16" fill="#888" text-anchor="middle">LF 16-TS - Ehemaliges Loeschgruppenfahrzeug</text>
  <text x="400" y="480" font-family="Inter, Arial, sans-serif" font-weight="400" font-size="13" fill="#AAA" text-anchor="middle">Ausser Dienst gestellt - Nachfolger: GW-T 2 (1/74)</text>
</svg>
