<svg xmlns="http://www.w3.org/2000/svg" viewBox="0 0 800 400">
  <defs>
    <linearGradient id="bg" x1="0" y1="0" x2="1" y2="1">
      <stop offset="0%" stop-color="#831843"/>
      <stop offset="100%" stop-color="#9f1239"/>
    </linearGradient>
  </defs>
  <rect width="800" height="400" fill="url(#bg)"/>
  <rect x="0" y="310" width="800" height="90" fill="#2d3748"/>
  <rect x="0" y="350" width="800" height="3" fill="#718096" opacity="0.4"/>
  <!-- Fahrzeug-Körper -->
  <rect x="130" y="150" width="450" height="160" rx="6" fill="#C8102E"/>
  <!-- Geräteraum-Klappen -->
  <rect x="145" y="190" width="90" height="90" rx="2" fill="#B91C1C" stroke="#991B1B" stroke-width="1"/>
  <rect x="245" y="190" width="90" height="90" rx="2" fill="#B91C1C" stroke="#991B1B" stroke-width="1"/>
  <rect x="345" y="190" width="70" height="90" rx="2" fill="#B91C1C" stroke="#991B1B" stroke-width="1"/>
  <!-- Klappengriffe -->
  <rect x="185" y="232" width="10" height="4" rx="2" fill="#D4D4D8"/>
  <rect x="285" y="232" width="10" height="4" rx="2" fill="#D4D4D8"/>
  <rect x="375" y="232" width="10" height="4" rx="2" fill="#D4D4D8"/>
  <!-- Fahrerkabine -->
  <rect x="500" y="185" width="120" height="125" rx="6" fill="#9B0B22"/>
  <rect x="518" y="195" width="82" height="55" rx="4" fill="#63B3ED" opacity="0.7"/>
  <!-- Dachaufbau -->
  <rect x="200" y="138" width="200" height="16" rx="4" fill="#B91C1C"/>
  <!-- Blaulicht -->
  <rect x="440" y="138" width="90" height="16" rx="8" fill="#3182CE"/>
  <circle cx="462" cy="146" r="5" fill="#63B3ED"/>
  <circle cx="508" cy="146" r="5" fill="#63B3ED"/>
  <!-- Schlauchtragekorb auf Dach -->
  <rect x="220" y="128" width="60" height="14" rx="3" fill="#A0AEC0" opacity="0.4"/>
  <rect x="300" y="128" width="60" height="14" rx="3" fill="#A0AEC0" opacity="0.4"/>
  <!-- LF 20 Beschriftung -->
  <text x="280" y="175" font-family="Arial, sans-serif" font-weight="bold" font-size="26" fill="white">LF 20</text>
  <!-- Feuerwehr-Streifen -->
  <rect x="130" y="292" width="490" height="8" fill="#E53E3E"/>
  <rect x="130" y="304" width="490" height="3" fill="white" opacity="0.3"/>
  <!-- Räder -->
  <circle cx="220" cy="315" r="32" fill="#1a202c"/>
  <circle cx="220" cy="315" r="20" fill="#2d3748"/>
  <circle cx="220" cy="315" r="7" fill="#718096"/>
  <circle cx="310" cy="315" r="28" fill="#1a202c"/>
  <circle cx="310" cy="315" r="17" fill="#2d3748"/>
  <circle cx="310" cy="315" r="6" fill="#718096"/>
  <circle cx="545" cy="315" r="32" fill="#1a202c"/>
  <circle cx="545" cy="315" r="20" fill="#2d3748"/>
  <circle cx="545" cy="315" r="7" fill="#718096"/>
  <!-- Kennzeichen -->
  <rect x="535" y="275" width="80" height="20" rx="2" fill="white"/>
  <text x="575" y="290" font-family="Arial, sans-serif" font-weight="bold" font-size="10" fill="#1a202c" text-anchor="middle">RT-WH 1442</text>
  <!-- Label -->
  <text x="400" y="380" font-family="Arial, sans-serif" font-weight="bold" font-size="14" fill="white" opacity="0.6" text-anchor="middle">Löschgruppenfahrzeug 20 | Staffelbesatzung 1/8</text>
</svg>
