<svg xmlns="http://www.w3.org/2000/svg" viewBox="0 0 800 500">
  <defs>
    <linearGradient id="sky" x1="0" y1="0" x2="0" y2="1"><stop offset="0%" stop-color="#87CEEB"/><stop offset="100%" stop-color="#E0F0FF"/></linearGradient>
    <linearGradient id="body" x1="0" y1="0" x2="0" y2="1"><stop offset="0%" stop-color="#E8102E"/><stop offset="40%" stop-color="#C8102E"/><stop offset="100%" stop-color="#A00D24"/></linearGradient>
    <linearGradient id="glass" x1="0" y1="0" x2="0.3" y2="1"><stop offset="0%" stop-color="#B8D8F0"/><stop offset="50%" stop-color="#7CB8DE"/><stop offset="100%" stop-color="#5A9DC5"/></linearGradient>
    <linearGradient id="gnd" x1="0" y1="0" x2="0" y2="1"><stop offset="0%" stop-color="#808080"/><stop offset="100%" stop-color="#606060"/></linearGradient>
    <filter id="sh"><feDropShadow dx="3" dy="5" stdDeviation="4" flood-color="#00000040"/></filter>
  </defs>
  <rect width="800" height="500" fill="url(#sky)"/>
  <rect x="0" y="380" width="800" height="120" fill="url(#gnd)"/>
  <rect x="0" y="380" width="800" height="3" fill="#909090"/>
  <g filter="url(#sh)">
    <rect x="195" y="330" width="380" height="14" rx="3" fill="#3D3D3D"/>
    <path d="M200,210 Q200,195 215,195 L515,195 Q535,195 545,210 L570,240 Q580,255 580,270 L580,338 L200,338 Z" fill="url(#body)"/>
    <path d="M215,195 Q215,178 230,175 L505,175 Q520,175 525,185 L535,195 L215,195 Z" fill="#B80D23"/>
    <path d="M520,198 L555,198 Q570,200 575,225 L578,258 L513,258 L513,210 Q513,198 520,198 Z" fill="url(#glass)" stroke="#555" stroke-width="1.5"/>
    <line x1="548" y1="198" x2="548" y2="258" stroke="#666" stroke-width="1.5"/>
    <rect x="440" y="205" width="45" height="38" rx="4" fill="url(#glass)" stroke="#555" stroke-width="1"/>
    <rect x="380" y="205" width="45" height="38" rx="4" fill="url(#glass)" stroke="#555" stroke-width="1"/>
    <rect x="320" y="205" width="45" height="38" rx="4" fill="url(#glass)" stroke="#555" stroke-width="1"/>
    <rect x="255" y="205" width="48" height="38" rx="4" fill="url(#glass)" stroke="#555" stroke-width="1"/>
    <rect x="205" y="205" width="35" height="38" rx="3" fill="url(#glass)" stroke="#555" stroke-width="1"/>
    <rect x="200" y="305" width="380" height="8" fill="#FFD700" opacity="0.9"/>
    <rect x="200" y="315" width="380" height="4" fill="white" opacity="0.6"/>
    <rect x="200" y="321" width="380" height="3" fill="#FFD700" opacity="0.7"/>
    <text x="390" y="190" font-family="Arial Black, sans-serif" font-weight="900" font-size="12" fill="white" text-anchor="middle" letter-spacing="2">FEUERWEHR</text>
    <text x="330" y="290" font-family="Arial, sans-serif" font-weight="bold" font-size="22" fill="white" text-anchor="middle">MTW</text>
    <line x1="380" y1="250" x2="380" y2="335" stroke="#8B0A1A" stroke-width="1.5"/>
    <rect x="372" y="275" width="15" height="5" rx="2" fill="#AAA"/>
    <path d="M575,265 Q582,260 584,268 L584,278 Q582,286 575,282 Z" fill="#FFFFDD" stroke="#888" stroke-width="1"/>
    <rect x="576" y="287" width="8" height="5" rx="2" fill="#FFB800"/>
    <rect x="584" y="215" width="16" height="25" rx="3" fill="#333"/>
    <rect x="587" y="218" width="10" height="19" rx="2" fill="#7CB8DE" opacity="0.5"/>
    <rect x="195" y="338" width="390" height="10" rx="3" fill="#444"/>
    <rect x="550" y="340" width="40" height="10" rx="1" fill="white" stroke="#333" stroke-width="0.5"/>
    <rect x="550" y="340" width="6" height="10" fill="#003399"/>
    <text x="570" y="348" font-family="Arial, sans-serif" font-weight="bold" font-size="5.5" fill="#1a1a1a" text-anchor="middle">RT-WH 37</text>
    <rect x="200" y="290" width="8" height="18" rx="2" fill="#FF3333"/>
    <rect x="200" y="310" width="8" height="8" rx="2" fill="#FFB800"/>
  </g>
  <circle cx="275" cy="362" r="34" fill="#1A1A1A"/><circle cx="275" cy="362" r="28" fill="#222" stroke="#2D2D2D" stroke-width="3"/>
  <circle cx="275" cy="362" r="14" fill="#888"/><circle cx="275" cy="362" r="10" fill="#999"/><circle cx="275" cy="362" r="4" fill="#777"/>
  <circle cx="510" cy="362" r="34" fill="#1A1A1A"/><circle cx="510" cy="362" r="28" fill="#222" stroke="#2D2D2D" stroke-width="3"/>
  <circle cx="510" cy="362" r="14" fill="#888"/><circle cx="510" cy="362" r="10" fill="#999"/><circle cx="510" cy="362" r="4" fill="#777"/>
  <ellipse cx="395" cy="398" rx="220" ry="10" fill="#00000025"/>
  <text x="400" y="440" font-family="Inter, Arial, sans-serif" font-weight="700" font-size="16" fill="#444" text-anchor="middle">MTW (1/19) - Mercedes Benz Vito - RT-WH 37</text>
  <text x="400" y="460" font-family="Inter, Arial, sans-serif" font-weight="400" font-size="13" fill="#777" text-anchor="middle">Mannschaftstransportwagen - Florian Walddorfhaeslach 1/19</text>
</svg>
