<svg xmlns="http://www.w3.org/2000/svg" viewBox="0 0 1600 900">
  <defs>
    <linearGradient id="nightsky" x1="0" y1="0" x2="0" y2="1"><stop offset="0%" stop-color="#0B1628"/><stop offset="40%" stop-color="#152238"/><stop offset="100%" stop-color="#1C3050"/></linearGradient>
    <linearGradient id="bld" x1="0" y1="0" x2="0" y2="1"><stop offset="0%" stop-color="#2D3440"/><stop offset="100%" stop-color="#1A2030"/></linearGradient>
    <linearGradient id="road" x1="0" y1="0" x2="0" y2="1"><stop offset="0%" stop-color="#2A2A2A"/><stop offset="100%" stop-color="#1A1A1A"/></linearGradient>
    <radialGradient id="lamp" cx="0.5" cy="0.5" r="0.5"><stop offset="0%" stop-color="#FFE8B0" stop-opacity="0.4"/><stop offset="100%" stop-color="#FFE8B0" stop-opacity="0"/></radialGradient>
    <filter id="blur"><feGaussianBlur stdDeviation="2"/></filter>
  </defs>
  <rect width="1600" height="900" fill="url(#nightsky)"/>
  <circle cx="150" cy="50" r="1.5" fill="white" opacity="0.7"/><circle cx="380" cy="80" r="1" fill="white" opacity="0.5"/>
  <circle cx="620" cy="40" r="1.5" fill="white" opacity="0.6"/><circle cx="850" cy="70" r="2" fill="white" opacity="0.4"/>
  <circle cx="1050" cy="55" r="1" fill="white" opacity="0.6"/><circle cx="1280" cy="85" r="1.5" fill="white" opacity="0.5"/>
  <circle cx="1450" cy="45" r="1" fill="white" opacity="0.7"/><circle cx="250" cy="120" r="1" fill="white" opacity="0.3"/>
  <circle cx="750" cy="110" r="1.5" fill="white" opacity="0.4"/><circle cx="1150" cy="130" r="1" fill="white" opacity="0.5"/>
  <circle cx="1350" cy="120" r="35" fill="#E8E0D0" opacity="0.8"/>
  <circle cx="1340" cy="115" r="30" fill="#0B1628" opacity="0.3"/>
  <ellipse cx="200" cy="380" rx="100" ry="80" fill="#0D1520"/>
  <ellipse cx="350" cy="390" rx="80" ry="60" fill="#0D1520"/>
  <ellipse cx="1300" cy="370" rx="120" ry="90" fill="#0D1520"/>
  <ellipse cx="1480" cy="385" rx="90" ry="70" fill="#0D1520"/>
  <rect x="400" y="280" width="800" height="350" fill="url(#bld)"/>
  <polygon points="370,280 1230,280 1200,230 400,230" fill="#384050"/>
  <line x1="370" y1="280" x2="1230" y2="280" stroke="#4A5568" stroke-width="2"/>
  <rect x="1080" y="120" width="110" height="160" fill="#384050"/>
  <rect x="1080" y="120" width="110" height="8" fill="#4A5568"/>
  <rect x="1095" y="140" width="35" height="45" fill="#1A2030" stroke="#4A5568" stroke-width="1"/>
  <rect x="1140" y="140" width="35" height="45" fill="#1A2030" stroke="#4A5568" stroke-width="1"/>
  <rect x="1095" y="200" width="35" height="45" fill="#1A2030" stroke="#4A5568" stroke-width="1"/>
  <rect x="1140" y="200" width="35" height="45" fill="#1A2030" stroke="#4A5568" stroke-width="1"/>
  <rect x="1097" y="202" width="31" height="41" fill="#F6AD55" opacity="0.12"/>
  <rect x="1142" y="142" width="31" height="43" fill="#F6AD55" opacity="0.08"/>
  <rect x="450" y="295" width="55" height="55" rx="2" fill="#1A2030" stroke="#4A5568" stroke-width="1"/>
  <rect x="540" y="295" width="55" height="55" rx="2" fill="#1A2030" stroke="#4A5568" stroke-width="1"/>
  <rect x="630" y="295" width="55" height="55" rx="2" fill="#1A2030" stroke="#4A5568" stroke-width="1"/>
  <rect x="750" y="295" width="55" height="55" rx="2" fill="#1A2030" stroke="#4A5568" stroke-width="1"/>
  <rect x="840" y="295" width="55" height="55" rx="2" fill="#1A2030" stroke="#4A5568" stroke-width="1"/>
  <rect x="930" y="295" width="55" height="55" rx="2" fill="#1A2030" stroke="#4A5568" stroke-width="1"/>
  <rect x="542" y="297" width="51" height="51" fill="#F6AD55" opacity="0.15"/>
  <rect x="752" y="297" width="51" height="51" fill="#F6AD55" opacity="0.2"/>
  <rect x="932" y="297" width="51" height="51" fill="#F6AD55" opacity="0.1"/>
  <text x="800" y="395" font-family="Arial Black, sans-serif" font-weight="900" font-size="38" fill="#C8102E" text-anchor="middle" letter-spacing="10" opacity="0.9">FEUERWEHR</text>
  <rect x="440" y="420" width="210" height="210" rx="4" fill="#151D28" stroke="#4A5568" stroke-width="2"/>
  <rect x="670" y="420" width="210" height="210" rx="4" fill="#151D28" stroke="#4A5568" stroke-width="2"/>
  <rect x="900" y="420" width="210" height="210" rx="4" fill="#151D28" stroke="#4A5568" stroke-width="2"/>
  <rect x="450" y="430" width="190" height="60" rx="2" fill="#F6AD55" opacity="0.08"/>
  <rect x="680" y="430" width="190" height="60" rx="2" fill="#F6AD55" opacity="0.18"/>
  <rect x="910" y="430" width="190" height="60" rx="2" fill="#F6AD55" opacity="0.06"/>
  <line x1="445" y1="460" x2="645" y2="460" stroke="#3A4458" stroke-width="0.5"/>
  <line x1="445" y1="490" x2="645" y2="490" stroke="#3A4458" stroke-width="0.5"/>
  <line x1="445" y1="520" x2="645" y2="520" stroke="#3A4458" stroke-width="0.5"/>
  <line x1="445" y1="550" x2="645" y2="550" stroke="#3A4458" stroke-width="0.5"/>
  <line x1="675" y1="460" x2="875" y2="460" stroke="#3A4458" stroke-width="0.5"/>
  <line x1="675" y1="490" x2="875" y2="490" stroke="#3A4458" stroke-width="0.5"/>
  <line x1="675" y1="520" x2="875" y2="520" stroke="#3A4458" stroke-width="0.5"/>
  <line x1="675" y1="550" x2="875" y2="550" stroke="#3A4458" stroke-width="0.5"/>
  <line x1="905" y1="460" x2="1105" y2="460" stroke="#3A4458" stroke-width="0.5"/>
  <line x1="905" y1="490" x2="1105" y2="490" stroke="#3A4458" stroke-width="0.5"/>
  <line x1="905" y1="520" x2="1105" y2="520" stroke="#3A4458" stroke-width="0.5"/>
  <line x1="905" y1="550" x2="1105" y2="550" stroke="#3A4458" stroke-width="0.5"/>
  <circle cx="435" cy="410" r="25" fill="url(#lamp)" filter="url(#blur)"/>
  <circle cx="435" cy="410" r="4" fill="#FFE8B0"/>
  <circle cx="660" cy="410" r="25" fill="url(#lamp)" filter="url(#blur)"/>
  <circle cx="660" cy="410" r="4" fill="#FFE8B0"/>
  <circle cx="895" cy="410" r="25" fill="url(#lamp)" filter="url(#blur)"/>
  <circle cx="895" cy="410" r="4" fill="#FFE8B0"/>
  <circle cx="1115" cy="410" r="25" fill="url(#lamp)" filter="url(#blur)"/>
  <circle cx="1115" cy="410" r="4" fill="#FFE8B0"/>
  <rect x="0" y="630" width="1600" height="270" fill="url(#road)"/>
  <rect x="0" y="630" width="1600" height="4" fill="#4A5568" opacity="0.5"/>
  <rect x="300" y="700" width="60" height="4" rx="2" fill="#555" opacity="0.3"/>
  <rect x="420" y="700" width="60" height="4" rx="2" fill="#555" opacity="0.3"/>
  <rect x="1100" y="700" width="60" height="4" rx="2" fill="#555" opacity="0.3"/>
  <rect x="1220" y="700" width="60" height="4" rx="2" fill="#555" opacity="0.3"/>
  <ellipse cx="800" cy="630" rx="500" ry="60" fill="#C8102E" opacity="0.04"/>
  <rect x="670" y="620" width="210" height="12" fill="#F6AD55" opacity="0.1"/>
</svg>
