<svg width="800" height="600" xmlns="http://www.w3.org/2000/svg">
  <defs>
    <linearGradient id="grad" x1="0%" y1="0%" x2="100%" y2="100%">
      <stop offset="0%" style="stop-color:#C8102E;stop-opacity:1" />
      <stop offset="100%" style="stop-color:#A00D25;stop-opacity:1" />
    </linearGradient>
  </defs>

  <!-- Background -->
  <rect width="800" height="600" fill="url(#grad)"/>

  <!-- Icon -->
  <g transform="translate(400, 250)">
    <!-- Fire icon -->
    <path d="M0,-80 C-20,-60 -30,-40 -30,-20 C-30,0 -20,20 0,40 C20,20 30,0 30,-20 C30,-40 20,-60 0,-80 Z"
          fill="white" opacity="0.3"/>
    <path d="M0,-60 C-15,-45 -20,-30 -20,-15 C-20,0 -10,15 0,25 C10,15 20,0 20,-15 C20,-30 15,-45 0,-60 Z"
          fill="white" opacity="0.5"/>
  </g>

  <!-- Text -->
  <text x="400" y="400" font-family="Arial, sans-serif" font-size="28" fill="white"
        text-anchor="middle" font-weight="bold">
    Feuerwehr Walddorfhäslach
  </text>
  <text x="400" y="440" font-family="Arial, sans-serif" font-size="18" fill="white"
        text-anchor="middle" opacity="0.8">
    Bild folgt in Kürze
  </text>
</svg>
